<svg xmlns="http://www.w3.org/2000/svg" width="401" height="270" fill="none" viewBox="0 0 401 270">
  <path fill="#00237F" d="M166 225C96.944 262.267 59.536 276.928.5 266.5V22h400v203l-1.136-.27C308.496 203.11 257.199 190.906 166 225z"/>
  <path fill="#002C9E" d="M167 189.649c-38.5 17.705-106.964 40.574-166 31.157V0h400v183.327c-91.578-19.675-152.5-31.156-234 6.322z"/>
  <g style="mix-blend-mode:soft-light">
    <path fill="#fff" d="M165.82 165.215C101.642 177.23 60.272 255.493 1 245.042V0h399.5v121c0 32.734.5 79 .5 79-150.72 55.572-117.521-56.814-235.18-34.785z"/>
  </g>
  <path fill="#fff" fill-rule="evenodd" d="M300.169 109.921c10.689-5.051 18.079-15.89 18.079-28.446 0-12.556-7.39-23.394-18.079-28.446A31.654 31.654 0 01313.729 50c17.473 0 31.639 14.092 31.639 31.475 0 17.383-14.166 31.475-31.639 31.475-4.853 0-9.45-1.087-13.56-3.029z" clip-rule="evenodd"/>
  <path fill="url(#paint0_linear)" fill-opacity=".3" fill-rule="evenodd" d="M300.169 109.921c10.689-5.051 18.079-15.89 18.079-28.446 0-12.556-7.39-23.394-18.079-28.446A31.654 31.654 0 01313.729 50c17.473 0 31.639 14.092 31.639 31.475 0 17.383-14.166 31.475-31.639 31.475-4.853 0-9.45-1.087-13.56-3.029z" clip-rule="evenodd"/>
  <path fill="#3F8AE9" fill-opacity=".5" fill-rule="evenodd" d="M300.169 109.921c10.689-5.051 18.079-15.89 18.079-28.446 0-12.556-7.39-23.394-18.079-28.446A31.654 31.654 0 01313.729 50c17.473 0 31.639 14.092 31.639 31.475 0 17.383-14.166 31.475-31.639 31.475-4.853 0-9.45-1.087-13.56-3.029z" clip-rule="evenodd"/>
  <defs>
    <linearGradient id="paint0_linear" x1="300.169" x2="300.169" y1="50" y2="112.95" gradientUnits="userSpaceOnUse">
      <stop stop-color="#fff" stop-opacity=".5"/>
      <stop offset="1" stop-opacity=".5"/>
    </linearGradient>
  </defs>
</svg>
